<svg version="1.1" id="Layer_1" xmlns="http://www.w3.org/2000/svg" xmlns:xlink="http://www.w3.org/1999/xlink" x="0px" y="0px"
	 width="100%" viewBox="0 0 720 693" enable-background="new 0 0 720 693" xml:space="preserve">
<path fill="#00ADEF" opacity="1.000000" stroke="none" 
	d="
M466.000000,694.000000 
	C310.666656,694.000000 155.833328,694.000000 1.000000,694.000000 
	C1.000000,463.000000 1.000000,232.000000 1.000000,1.000000 
	C241.000000,1.000000 481.000000,1.000000 721.000000,1.000000 
	C721.000000,232.000000 721.000000,463.000000 721.000000,694.000000 
	C636.166687,694.000000 551.333313,694.000000 466.000000,694.000000 
M401.001221,473.002441 
	C401.001221,473.002441 401.026184,473.020142 401.528076,472.887909 
	C401.678497,472.592682 401.828918,472.297455 402.527435,471.711884 
	C403.420349,470.589905 404.313293,469.467926 405.794159,468.125702 
	C406.225433,467.443390 406.656708,466.761047 407.007141,466.004578 
	C407.007141,466.004578 407.074219,466.091156 407.580994,465.934174 
	C407.705811,465.620636 407.830597,465.307098 408.403503,464.716553 
	C408.680328,464.276001 408.957153,463.835480 409.809601,463.137787 
	C410.216675,462.434296 410.623749,461.730804 411.516235,460.691833 
	C412.058929,459.881897 412.601624,459.071960 413.656616,458.038574 
	C413.772552,457.698120 413.888489,457.357666 414.457947,456.729156 
	C414.695404,456.255219 414.932861,455.781281 415.675323,455.062958 
	C415.794556,454.720856 415.913818,454.378723 416.000000,454.001221 
	C416.000000,454.001221 416.035156,454.032684 416.519714,453.890411 
	C416.622223,453.587677 416.724762,453.284943 417.092194,452.697449 
	C417.092194,452.697449 417.177338,452.317963 417.688904,452.068420 
	C417.808594,451.721924 417.928284,451.375427 418.494263,450.746063 
	C418.726318,450.278442 418.958374,449.810852 419.691559,449.079742 
	C419.793671,448.729584 419.895782,448.379456 420.499573,447.573547 
	C423.423889,442.153503 426.616821,436.856689 429.178741,431.270416 
	C430.905121,427.506042 433.124176,426.053345 437.362427,425.572357 
	C494.564148,419.081055 534.423645,389.833923 554.641907,335.270020 
	C556.689697,329.743530 557.990723,323.940369 559.936523,317.238770 
	C529.418335,322.748047 500.060669,325.101715 470.823547,317.283020 
	C473.851593,315.671875 476.905609,314.913971 479.951019,314.123047 
	C483.175201,313.285706 486.408783,312.477692 489.608093,311.552643 
	C524.521118,301.458466 555.801514,285.187317 580.197510,257.532959 
	C594.714111,241.077423 605.371643,222.404678 611.612732,200.574448 
	C612.456177,197.442047 613.299683,194.309647 614.317688,190.528885 
	C611.510193,190.372223 609.570984,190.170914 607.631653,190.169693 
	C576.033508,190.149887 544.423706,189.634735 512.841431,190.343658 
	C492.777740,190.794037 472.663513,192.341782 452.752472,194.837692 
	C442.760925,196.090179 433.172729,200.560333 423.123901,203.574600 
	C423.123901,203.574600 422.948364,203.790451 422.259125,203.712921 
	C421.099426,204.383408 419.939728,205.053894 418.885559,205.866440 
	C418.885559,205.866440 418.821930,205.701294 418.179901,205.682190 
	C417.698761,206.066040 417.217590,206.449875 416.333374,206.894394 
	C416.333374,206.894394 416.017670,207.152206 415.497711,207.102295 
	C415.291962,207.363449 415.086243,207.624603 415.003967,207.984329 
	C415.003967,207.984329 414.884857,207.877289 414.219269,207.857178 
	C413.350677,208.488770 412.482086,209.120361 411.265228,209.792267 
	C411.265228,209.792267 411.008514,210.031036 410.369385,210.036179 
	C409.752747,210.593048 409.136108,211.149918 408.201416,211.793030 
	C408.201416,211.793030 408.006897,212.059067 407.474091,212.079391 
	C407.269836,212.350494 407.065613,212.621597 406.933838,212.937286 
	C406.933838,212.937286 406.909485,212.855789 406.327393,212.921219 
	C406.090271,213.214218 405.853149,213.507217 405.260895,213.877289 
	C405.260895,213.877289 405.019775,214.149124 404.506989,214.160782 
	C404.334198,214.436310 404.161438,214.711838 403.998779,215.000000 
	C403.998779,215.000000 403.984528,214.990204 403.333649,215.055267 
	C402.402740,215.943756 401.471802,216.832245 400.015289,217.965851 
	C399.336670,218.638306 398.658020,219.310760 397.451324,220.073242 
	C397.279236,220.368820 397.107178,220.664413 396.499756,221.134964 
	C396.217529,221.301132 396.021729,221.538574 395.363098,221.951630 
	C395.193268,222.265671 395.023468,222.579712 394.949493,222.943085 
	C394.949493,222.943085 394.884369,222.857224 394.360626,222.992661 
	C394.198242,223.298691 394.035828,223.604706 393.955811,223.958191 
	C393.955811,223.958191 393.907684,223.876175 393.375458,223.992996 
	C393.208405,224.299011 393.041382,224.605042 392.957489,224.960709 
	C392.957489,224.960709 392.907623,224.877670 392.381714,225.011322 
	C392.232544,225.325546 392.083374,225.639771 391.498352,226.175476 
	C391.227264,226.383057 391.055206,226.653625 390.474274,227.105072 
	C390.320770,227.400116 390.167297,227.695160 389.991150,227.989243 
	C389.991150,227.989243 389.992340,228.011887 389.490295,228.115631 
	C389.363464,228.414642 389.236664,228.713669 388.679810,229.305359 
	C388.373810,229.718338 388.067780,230.131317 387.112671,230.486359 
	C385.577240,229.567841 383.921661,228.802780 382.523865,227.708466 
	C342.995819,196.763031 298.405243,184.895309 248.835159,192.806244 
	C155.424118,207.713821 87.170074,300.669556 113.402306,402.212585 
	C134.047409,482.128204 210.316895,537.766479 299.619568,526.584351 
	C311.968414,525.038147 323.917053,520.295532 336.525238,516.991943 
	C336.525238,516.991943 336.938080,516.754944 337.670288,516.872986 
	C340.687073,515.452698 343.703827,514.032349 346.960388,512.639648 
	C346.960388,512.639648 347.106567,512.447571 347.805878,512.473450 
	C348.364319,512.086304 348.922760,511.699188 350.023956,511.208435 
	C350.340759,511.024353 350.657593,510.840302 351.458557,510.757294 
	C351.832520,510.672180 352.035736,510.438538 352.009766,510.004333 
	C352.009766,510.004333 352.046021,510.073547 352.653931,510.069977 
	C352.946228,509.807465 353.238495,509.544983 353.824677,509.266144 
	C353.824677,509.266144 354.002838,509.031860 354.616089,509.058960 
	C354.916870,508.799622 355.217651,508.540283 355.817902,508.244629 
	C355.817902,508.244629 356.001862,508.005585 356.610321,508.062653 
	C357.053131,507.699432 357.495941,507.336212 358.404846,506.884094 
	C358.721954,506.788727 358.971466,506.602692 359.830109,506.300690 
	C360.902405,505.550659 361.974701,504.800598 363.000000,504.000000 
	C363.000000,504.000000 363.044617,504.052734 363.687317,504.038147 
	C364.345398,503.521942 365.003448,503.005707 365.921661,502.445587 
	C365.921661,502.445587 366.042023,502.210846 366.664764,502.202118 
	C367.083954,501.788635 367.503143,501.375153 367.980835,500.988770 
	C367.980835,500.988770 367.969849,500.925293 368.649658,500.894165 
	C370.398132,499.575226 372.146576,498.256287 373.956360,496.970520 
	C373.956360,496.970520 373.950104,496.901093 374.601746,496.885651 
	C375.723846,495.920990 376.845947,494.956329 378.001434,494.009766 
	C378.001434,494.009766 377.996368,493.972107 378.617462,493.939911 
	C379.347260,493.264740 380.077057,492.589569 381.338074,491.656982 
	C381.902740,491.120667 382.467377,490.584320 383.579651,489.971649 
	C383.773865,489.675720 383.968079,489.379791 384.583466,488.966492 
	C384.861176,488.832733 385.053192,488.621185 385.739868,488.233795 
	C386.103180,487.798492 386.466461,487.363190 387.400635,486.671631 
	C388.272644,485.784698 389.144623,484.897736 390.546204,483.927521 
	C390.717468,483.632477 390.888702,483.337433 391.002441,483.003479 
	C391.002441,483.003479 391.043182,483.059692 391.573517,482.964508 
	C391.755646,482.671783 391.937805,482.379059 392.044250,482.035858 
	C392.044250,482.035858 392.082733,482.118347 392.624512,482.022644 
	C392.798737,481.716736 392.972931,481.410797 393.039948,481.042297 
	C393.039948,481.042297 393.122101,481.135315 393.778503,481.000000 
	C395.557678,479.034485 397.336853,477.068970 399.021484,475.023071 
	C399.021484,475.023071 399.093231,475.124329 399.619568,474.993164 
	C399.783020,474.686951 399.946503,474.380707 400.032410,474.028320 
	C400.032410,474.028320 400.078033,474.106171 400.598297,473.971283 
	C400.738953,473.656647 400.879578,473.342010 401.001221,473.002441 
z"/>
<path fill="#FDFFFF" opacity="1.000000" stroke="none" 
	d="
M350.974426,510.656250 
	C350.657593,510.840302 350.340759,511.024353 349.394592,511.228821 
	C348.212372,511.648651 347.659485,512.048157 347.106567,512.447571 
	C347.106567,512.447571 346.960388,512.639648 346.442505,512.498779 
	C342.929138,513.823547 339.933594,515.289246 336.938049,516.754883 
	C336.938080,516.754944 336.525238,516.991943 335.885132,516.952026 
	C318.822388,520.939514 302.654083,526.077393 285.460480,526.346130 
	C277.959503,526.463379 276.979797,525.893860 279.207916,518.851990 
	C291.542664,479.868622 303.877808,440.885284 316.167175,401.887634 
	C318.152740,395.586823 319.909485,389.213959 321.788147,382.900024 
	C321.804260,382.925690 321.780151,382.878906 322.045990,382.690918 
	C322.472656,381.896637 322.633484,381.290375 322.807220,380.497223 
	C322.820160,380.310333 323.029327,379.999451 323.246643,379.790955 
	C323.609711,379.017456 323.755493,378.452515 323.939575,377.654053 
	C323.977905,377.420563 324.197235,377.001221 324.403687,376.782379 
	C324.702362,375.987152 324.794525,375.410767 324.893066,374.615265 
	C324.899445,374.396149 325.095734,374.004120 325.269257,373.772400 
	C325.489441,373.164398 325.536102,372.788086 325.604828,372.158630 
	C325.768646,371.599274 325.910370,371.293030 326.278809,370.716827 
	C326.606934,369.535461 326.708313,368.624054 326.810181,367.521088 
	C326.810699,367.329498 326.999786,366.996216 327.242004,366.721313 
	C328.157410,364.059052 328.700897,361.625977 329.523926,359.291473 
	C337.320282,337.177185 344.737823,314.916565 353.112885,293.022644 
	C361.681427,270.622864 372.092194,249.082993 387.761780,230.544312 
	C388.067780,230.131317 388.373810,229.718338 389.111877,229.063553 
	C389.815338,228.619293 389.964783,228.349335 389.992340,228.011887 
	C389.992340,228.011887 389.991150,227.989243 390.234253,227.901550 
	C390.768890,227.613571 390.937134,227.337997 390.982178,226.987167 
	C391.055206,226.653625 391.227264,226.383057 391.947998,225.957535 
	C392.567657,225.452286 392.737640,225.164978 392.907623,224.877670 
	C392.907623,224.877670 392.957489,224.960709 393.157745,224.843521 
	C393.541229,224.442947 393.724457,224.159561 393.907684,223.876175 
	C393.907684,223.876175 393.955811,223.958191 394.155609,223.839111 
	C394.531708,223.432419 394.708038,223.144821 394.884369,222.857224 
	C394.884369,222.857224 394.949493,222.943085 395.142944,222.818634 
	C395.528381,222.411896 395.720367,222.129578 395.912354,221.847275 
	C396.021729,221.538574 396.217529,221.301132 396.955353,220.963440 
	C397.600433,220.522369 397.789917,220.252792 397.979401,219.983231 
	C398.658020,219.310760 399.336670,218.638306 400.635406,217.859589 
	C402.165192,216.832306 403.074860,215.911255 403.984558,214.990204 
	C403.984528,214.990204 403.998779,215.000000 404.226624,214.942719 
	C404.756073,214.726868 404.944489,214.481430 405.019775,214.149124 
	C405.019775,214.149124 405.260895,213.877289 405.715027,213.778992 
	C406.415955,213.405731 406.662720,213.130768 406.909485,212.855804 
	C406.909485,212.855789 406.933838,212.937286 407.143616,212.864944 
	C407.571228,212.548096 407.789062,212.303574 408.006897,212.059067 
	C408.006897,212.059067 408.201416,211.793030 408.699158,211.772980 
	C409.800751,211.178970 410.404633,210.604996 411.008514,210.031036 
	C411.008514,210.031036 411.265228,209.792267 411.800903,209.823639 
	C413.185974,209.195786 414.035431,208.536545 414.884857,207.877289 
	C414.884857,207.877289 415.003967,207.984329 415.180969,207.904068 
	C415.675018,207.695404 415.894928,207.471527 416.017670,207.152206 
	C416.017670,207.152206 416.333374,206.894394 416.856750,206.874039 
	C417.860748,206.469543 418.341339,206.085419 418.821930,205.701294 
	C418.821930,205.701294 418.885559,205.866440 419.191895,205.871613 
	C420.648285,205.181335 421.798340,204.485886 422.948364,203.790451 
	C422.948364,203.790451 423.123901,203.574600 423.672760,203.669922 
	C427.531982,202.755524 430.850220,201.770920 434.151398,200.732040 
	C454.979645,194.177383 476.556152,192.556915 498.126801,192.188843 
	C532.535156,191.601685 566.960327,192.002502 601.378418,191.988617 
	C611.169800,191.984665 611.169800,191.989487 611.063110,201.071365 
	C605.371643,222.404678 594.714111,241.077423 580.197510,257.532959 
	C555.801514,285.187317 524.521118,301.458466 489.608093,311.552643 
	C486.408783,312.477692 483.175201,313.285706 479.951019,314.123047 
	C476.905609,314.913971 473.851593,315.671875 470.823547,317.283020 
	C500.060669,325.101715 529.418335,322.748047 559.936523,317.238770 
	C557.990723,323.940369 556.689697,329.743530 554.641907,335.270020 
	C534.423645,389.833923 494.564148,419.081055 437.362427,425.572357 
	C433.124176,426.053345 430.905121,427.506042 429.178741,431.270416 
	C426.616821,436.856689 423.423889,442.153503 420.031219,447.961639 
	C419.438721,448.680908 419.314575,449.012085 419.190430,449.343262 
	C418.958374,449.810852 418.726318,450.278442 418.042480,451.037598 
	C417.452881,451.658722 417.315094,451.988342 417.177307,452.317963 
	C417.177338,452.317963 417.092194,452.697449 416.752686,452.949524 
	C416.157715,453.419739 416.031708,453.696777 416.035156,454.032684 
	C416.035156,454.032684 416.000000,454.001221 415.789520,454.165710 
	C415.442810,454.655914 415.306549,454.981628 415.170349,455.307312 
	C414.932861,455.781281 414.695404,456.255219 414.008453,457.017822 
	C413.420746,457.625031 413.282532,457.943512 413.144348,458.261993 
	C412.601624,459.071960 412.058929,459.881897 410.952881,460.947632 
	C410.004303,461.933960 409.619141,462.664459 409.233978,463.394958 
	C408.957153,463.835480 408.680328,464.276001 407.959961,464.971069 
	C407.246246,465.451385 407.098877,465.739899 407.074219,466.091156 
	C407.074219,466.091156 407.007141,466.004578 406.724670,466.114105 
	C406.030182,466.931061 405.618225,467.638519 405.206238,468.345978 
	C404.313293,469.467926 403.420349,470.589905 402.023010,471.948914 
	C401.230896,472.391083 401.066742,472.669128 401.026184,473.020142 
	C401.026184,473.020142 401.001221,473.002441 400.783539,473.124512 
	C400.403259,473.533142 400.240631,473.819641 400.078033,474.106171 
	C400.078033,474.106171 400.032410,474.028320 399.830139,474.146454 
	C399.449646,474.551147 399.271423,474.837738 399.093201,475.124329 
	C399.093231,475.124329 399.021484,475.023071 398.721558,475.087158 
	C396.655121,477.145935 394.888611,479.140625 393.122101,481.135315 
	C393.122101,481.135315 393.039948,481.042297 392.849243,481.161621 
	C392.466614,481.560059 392.274689,481.839203 392.082764,482.118347 
	C392.082733,482.118347 392.044250,482.035858 391.835449,482.137024 
	C391.432159,482.511993 391.237671,482.785858 391.043182,483.059692 
	C391.043182,483.059692 391.002441,483.003479 390.792511,483.103699 
	C390.393951,483.472900 390.205292,483.741852 390.016632,484.010803 
	C389.144623,484.897736 388.272644,485.784698 386.823730,486.848267 
	C385.884399,487.460571 385.521942,487.896210 385.159485,488.331848 
	C385.053192,488.621185 384.861176,488.832733 384.122620,489.101807 
	C383.451843,489.507416 383.241943,489.777710 383.032043,490.047974 
	C382.467377,490.584320 381.902740,491.120667 380.746429,491.784302 
	C379.435303,492.598419 378.715820,493.285248 377.996368,493.972107 
	C377.996368,493.972107 378.001434,494.009766 377.635986,493.985352 
	C376.163696,494.940979 375.056915,495.921051 373.950134,496.901123 
	C373.950104,496.901093 373.956360,496.970520 373.567108,496.944580 
	C371.441864,498.254211 369.705872,499.589783 367.969849,500.925293 
	C367.969849,500.925293 367.980835,500.988770 367.650024,501.001312 
	C366.893524,501.412872 366.467773,501.811859 366.042023,502.210846 
	C366.042023,502.210846 365.921661,502.445587 365.442871,502.408630 
	C364.324249,502.932007 363.684418,503.492371 363.044617,504.052734 
	C363.044617,504.052734 363.000000,504.000000 362.666229,503.992188 
	C361.272736,504.764893 360.213043,505.545410 359.153320,506.325928 
	C358.971466,506.602692 358.721954,506.788727 357.878662,506.930664 
	C356.902283,507.320038 356.452087,507.662811 356.001862,508.005585 
	C356.001862,508.005585 355.817902,508.244629 355.369751,508.278320 
	C354.615356,508.551941 354.309082,508.791901 354.002838,509.031860 
	C354.002838,509.031860 353.824677,509.266144 353.380066,509.295441 
	C352.638977,509.574341 352.342499,509.823944 352.046021,510.073547 
	C352.046021,510.073547 352.009766,510.004333 351.814270,510.036865 
	C351.309113,510.160797 351.094330,510.356415 350.974426,510.656250 
z"/>
<path fill="#C9EFFB" opacity="1.000000" stroke="none" 
	d="
M387.437256,230.515350 
	C372.092194,249.082993 361.681427,270.622864 353.112885,293.022644 
	C344.737823,314.916565 337.320282,337.177185 329.523926,359.291473 
	C328.700897,361.625977 328.157410,364.059052 327.181396,366.257690 
	C326.947906,364.071564 327.063019,362.074463 327.079620,360.076599 
	C327.351562,327.394714 298.579285,303.474365 266.581299,309.769836 
	C247.087357,313.605225 231.253098,329.137207 227.143417,348.454865 
	C222.865097,368.565277 231.109528,389.197083 248.124268,400.959808 
	C264.664215,412.394348 286.800415,412.679413 303.769775,401.910614 
	C311.423645,397.053467 316.843384,390.232086 321.772034,382.874390 
	C319.909485,389.213959 318.152740,395.586823 316.167175,401.887634 
	C303.877808,440.885284 291.542664,479.868622 279.207916,518.851990 
	C276.979797,525.893860 277.959503,526.463379 285.460480,526.346130 
	C302.654083,526.077393 318.822388,520.939514 335.647980,516.972412 
	C323.917053,520.295532 311.968414,525.038147 299.619568,526.584351 
	C210.316895,537.766479 134.047409,482.128204 113.402306,402.212585 
	C87.170074,300.669556 155.424118,207.713821 248.835159,192.806244 
	C298.405243,184.895309 342.995819,196.763031 382.523865,227.708466 
	C383.921661,228.802780 385.577240,229.567841 387.437256,230.515350 
z"/>
<path fill="#C9EFFB" opacity="1.000000" stroke="none" 
	d="
M611.337891,200.822906 
	C611.169800,191.989487 611.169800,191.984665 601.378418,191.988617 
	C566.960327,192.002502 532.535156,191.601685 498.126801,192.188843 
	C476.556152,192.556915 454.979645,194.177383 434.151398,200.732040 
	C430.850220,201.770920 427.531982,202.755524 423.811890,203.670273 
	C433.172729,200.560333 442.760925,196.090179 452.752472,194.837692 
	C472.663513,192.341782 492.777740,190.794037 512.841431,190.343658 
	C544.423706,189.634735 576.033508,190.149887 607.631653,190.169693 
	C609.570984,190.170914 611.510193,190.372223 614.317688,190.528885 
	C613.299683,194.309647 612.456177,197.442047 611.337891,200.822906 
z"/>
<path fill="#C9EFFB" opacity="1.000000" stroke="none" 
	d="
M337.304169,516.813965 
	C339.933594,515.289246 342.929138,513.823547 346.322632,512.484924 
	C343.703827,514.032349 340.687073,515.452698 337.304169,516.813965 
z"/>
<path fill="#C9EFFB" opacity="1.000000" stroke="none" 
	d="
M393.450317,481.067657 
	C394.888611,479.140625 396.655121,477.145935 398.768829,475.127350 
	C397.336853,477.068970 395.557678,479.034485 393.450317,481.067657 
z"/>
<path fill="#C9EFFB" opacity="1.000000" stroke="none" 
	d="
M368.309753,500.909729 
	C369.705872,499.589783 371.441864,498.254211 373.536438,496.928009 
	C372.146576,498.256287 370.398132,499.575226 368.309753,500.909729 
z"/>
<path fill="#C9EFFB" opacity="1.000000" stroke="none" 
	d="
M374.275940,496.893372 
	C375.056915,495.921051 376.163696,494.940979 377.619263,493.976318 
	C376.845947,494.956329 375.723846,495.920990 374.275940,496.893372 
z"/>
<path fill="#C9EFFB" opacity="1.000000" stroke="none" 
	d="
M403.659119,215.022736 
	C403.074860,215.911255 402.165192,216.832306 400.898193,217.737030 
	C401.471802,216.832245 402.402740,215.943756 403.659119,215.022736 
z"/>
<path fill="#C9EFFB" opacity="1.000000" stroke="none" 
	d="
M359.491730,506.313324 
	C360.213043,505.545410 361.272736,504.764893 362.689697,504.017456 
	C361.974701,504.800598 360.902405,505.550659 359.491730,506.313324 
z"/>
<path fill="#C9EFFB" opacity="1.000000" stroke="none" 
	d="
M422.603760,203.751678 
	C421.798340,204.485886 420.648285,205.181335 419.139160,205.800568 
	C419.939728,205.053894 421.099426,204.383408 422.603760,203.751678 
z"/>
<path fill="#C9EFFB" opacity="1.000000" stroke="none" 
	d="
M378.306915,493.955994 
	C378.715820,493.285248 379.435303,492.598419 380.480835,491.913025 
	C380.077057,492.589569 379.347260,493.264740 378.306915,493.955994 
z"/>
<path fill="#C9EFFB" opacity="1.000000" stroke="none" 
	d="
M414.552063,207.867233 
	C414.035431,208.536545 413.185974,209.195786 411.975037,209.803497 
	C412.482086,209.120361 413.350677,208.488770 414.552063,207.867233 
z"/>
<path fill="#C9EFFB" opacity="1.000000" stroke="none" 
	d="
M410.688965,210.033600 
	C410.404633,210.604996 409.800751,211.178970 408.858154,211.729858 
	C409.136108,211.149918 409.752747,210.593048 410.688965,210.033600 
z"/>
<path fill="#C9EFFB" opacity="1.000000" stroke="none" 
	d="
M405.500183,468.235840 
	C405.618225,467.638519 406.030182,466.931061 406.765076,466.151184 
	C406.656708,466.761047 406.225433,467.443390 405.500183,468.235840 
z"/>
<path fill="#C9EFFB" opacity="1.000000" stroke="none" 
	d="
M409.521790,463.266357 
	C409.619141,462.664459 410.004303,461.933960 410.710144,461.115387 
	C410.623749,461.730804 410.216675,462.434296 409.521790,463.266357 
z"/>
<path fill="#C9EFFB" opacity="1.000000" stroke="none" 
	d="
M363.365967,504.045441 
	C363.684418,503.492371 364.324249,502.932007 365.312805,502.430573 
	C365.003448,503.005707 364.345398,503.521942 363.365967,504.045441 
z"/>
<path fill="#C9EFFB" opacity="1.000000" stroke="none" 
	d="
M347.456238,512.460510 
	C347.659485,512.048157 348.212372,511.648651 349.123230,511.280640 
	C348.922760,511.699188 348.364319,512.086304 347.456238,512.460510 
z"/>
<path fill="#C9EFFB" opacity="1.000000" stroke="none" 
	d="
M418.500916,205.691742 
	C418.341339,206.085419 417.860748,206.469543 417.058289,206.843704 
	C417.217590,206.449875 417.698761,206.066040 418.500916,205.691742 
z"/>
<path fill="#C9EFFB" opacity="1.000000" stroke="none" 
	d="
M385.449677,488.282837 
	C385.521942,487.896210 385.884399,487.460571 386.538330,486.976379 
	C386.466461,487.363190 386.103180,487.798492 385.449677,488.282837 
z"/>
<path fill="#C9EFFB" opacity="1.000000" stroke="none" 
	d="
M366.353394,502.206482 
	C366.467773,501.811859 366.893524,501.412872 367.620789,500.987762 
	C367.503143,501.375153 367.083954,501.788635 366.353394,502.206482 
z"/>
<path fill="#C9EFFB" opacity="1.000000" stroke="none" 
	d="
M356.306091,508.034119 
	C356.452087,507.662811 356.902283,507.320038 357.645630,506.975128 
	C357.495941,507.336212 357.053131,507.699432 356.306091,508.034119 
z"/>
<path fill="#C9EFFB" opacity="1.000000" stroke="none" 
	d="
M383.305847,490.009827 
	C383.241943,489.777710 383.451843,489.507416 383.911987,489.160492 
	C383.968079,489.379791 383.773865,489.675720 383.305847,490.009827 
z"/>
<path fill="#C9EFFB" opacity="1.000000" stroke="none" 
	d="
M390.281433,483.969177 
	C390.205292,483.741852 390.393951,483.472900 390.821259,483.123169 
	C390.888702,483.337433 390.717468,483.632477 390.281433,483.969177 
z"/>
<path fill="#C9EFFB" opacity="1.000000" stroke="none" 
	d="
M354.309448,509.045410 
	C354.309082,508.791901 354.615356,508.551941 355.220032,508.296478 
	C355.217651,508.540283 354.916870,508.799622 354.309448,509.045410 
z"/>
<path fill="#C9EFFB" opacity="1.000000" stroke="none" 
	d="
M352.349976,510.071777 
	C352.342499,509.823944 352.638977,509.574341 353.233124,509.303589 
	C353.238495,509.544983 352.946228,509.807465 352.349976,510.071777 
z"/>
<path fill="#C9EFFB" opacity="1.000000" stroke="none" 
	d="
M391.308350,483.012085 
	C391.237671,482.785858 391.432159,482.511993 391.873291,482.162231 
	C391.937805,482.379059 391.755646,482.671783 391.308350,483.012085 
z"/>
<path fill="#C9EFFB" opacity="1.000000" stroke="none" 
	d="
M351.216492,510.706787 
	C351.094330,510.356415 351.309113,510.160797 351.843506,510.062866 
	C352.035736,510.438538 351.832520,510.672180 351.216492,510.706787 
z"/>
<path fill="#C9EFFB" opacity="1.000000" stroke="none" 
	d="
M392.353638,482.070496 
	C392.274689,481.839203 392.466614,481.560059 392.902832,481.192871 
	C392.972931,481.410797 392.798737,481.716736 392.353638,482.070496 
z"/>
<path fill="#C9EFFB" opacity="1.000000" stroke="none" 
	d="
M413.400482,458.150269 
	C413.282532,457.943512 413.420746,457.625031 413.781677,457.161865 
	C413.888489,457.357666 413.772552,457.698120 413.400482,458.150269 
z"/>
<path fill="#C9EFFB" opacity="1.000000" stroke="none" 
	d="
M390.728210,227.046112 
	C390.937134,227.337997 390.768890,227.613571 390.245605,227.902039 
	C390.167297,227.695160 390.320770,227.400116 390.728210,227.046112 
z"/>
<path fill="#C9EFFB" opacity="1.000000" stroke="none" 
	d="
M415.757690,207.127258 
	C415.894928,207.471527 415.675018,207.695404 415.119232,207.854782 
	C415.086243,207.624603 415.291962,207.363449 415.757690,207.127258 
z"/>
<path fill="#C9EFFB" opacity="1.000000" stroke="none" 
	d="
M407.740479,212.069229 
	C407.789062,212.303574 407.571228,212.548096 407.107391,212.842651 
	C407.065613,212.621597 407.269836,212.350494 407.740479,212.069229 
z"/>
<path fill="#C9EFFB" opacity="1.000000" stroke="none" 
	d="
M406.618439,212.888519 
	C406.662720,213.130768 406.415955,213.405731 405.892578,213.740479 
	C405.853149,213.507217 406.090271,213.214218 406.618439,212.888519 
z"/>
<path fill="#C9EFFB" opacity="1.000000" stroke="none" 
	d="
M404.763367,214.154953 
	C404.944489,214.481430 404.756073,214.726868 404.221558,214.936401 
	C404.161438,214.711838 404.334198,214.436310 404.763367,214.154953 
z"/>
<path fill="#C9EFFB" opacity="1.000000" stroke="none" 
	d="
M397.715363,220.028229 
	C397.789917,220.252792 397.600433,220.522369 397.173035,220.875977 
	C397.107178,220.664413 397.279236,220.368820 397.715363,220.028229 
z"/>
<path fill="#C9EFFB" opacity="1.000000" stroke="none" 
	d="
M395.637726,221.899445 
	C395.720367,222.129578 395.528381,222.411896 395.095032,222.793976 
	C395.023468,222.579712 395.193268,222.265671 395.637726,221.899445 
z"/>
<path fill="#C9EFFB" opacity="1.000000" stroke="none" 
	d="
M394.622498,222.924942 
	C394.708038,223.144821 394.531708,223.432419 394.114410,223.815369 
	C394.035828,223.604706 394.198242,223.298691 394.622498,222.924942 
z"/>
<path fill="#C9EFFB" opacity="1.000000" stroke="none" 
	d="
M393.641571,223.934586 
	C393.724457,224.159561 393.541229,224.442947 393.116150,224.818695 
	C393.041382,224.605042 393.208405,224.299011 393.641571,223.934586 
z"/>
<path fill="#C9EFFB" opacity="1.000000" stroke="none" 
	d="
M392.644653,224.944489 
	C392.737640,225.164978 392.567657,225.452286 392.165955,225.846802 
	C392.083374,225.639771 392.232544,225.325546 392.644653,224.944489 
z"/>
<path fill="#C9EFFB" opacity="1.000000" stroke="none" 
	d="
M399.356384,475.058746 
	C399.271423,474.837738 399.449646,474.551147 399.868927,474.169525 
	C399.946503,474.380707 399.783020,474.686951 399.356384,475.058746 
z"/>
<path fill="#C9EFFB" opacity="1.000000" stroke="none" 
	d="
M389.741333,228.063751 
	C389.964783,228.349335 389.815338,228.619293 389.326904,228.917221 
	C389.236664,228.713669 389.363464,228.414642 389.741333,228.063751 
z"/>
<path fill="#C9EFFB" opacity="1.000000" stroke="none" 
	d="
M419.440979,449.211487 
	C419.314575,449.012085 419.438721,448.680908 419.780396,448.189514 
	C419.895782,448.379456 419.793671,448.729584 419.440979,449.211487 
z"/>
<path fill="#C9EFFB" opacity="1.000000" stroke="none" 
	d="
M417.433105,452.193176 
	C417.315094,451.988342 417.452881,451.658722 417.819336,451.179016 
	C417.928284,451.375427 417.808594,451.721924 417.433105,452.193176 
z"/>
<path fill="#C9EFFB" opacity="1.000000" stroke="none" 
	d="
M416.277435,453.961548 
	C416.031708,453.696777 416.157715,453.419739 416.620209,453.091888 
	C416.724762,453.284943 416.622223,453.587677 416.277435,453.961548 
z"/>
<path fill="#C9EFFB" opacity="1.000000" stroke="none" 
	d="
M415.422821,455.185120 
	C415.306549,454.981628 415.442810,454.655914 415.806061,454.183411 
	C415.913818,454.378723 415.794556,454.720856 415.422821,455.185120 
z"/>
<path fill="#C9EFFB" opacity="1.000000" stroke="none" 
	d="
M407.327606,466.012665 
	C407.098877,465.739899 407.246246,465.451385 407.735901,465.109558 
	C407.830597,465.307098 407.705811,465.620636 407.327606,466.012665 
z"/>
<path fill="#C9EFFB" opacity="1.000000" stroke="none" 
	d="
M401.277130,472.954041 
	C401.066742,472.669128 401.230896,472.391083 401.748962,472.094116 
	C401.828918,472.297455 401.678497,472.592682 401.277130,472.954041 
z"/>
<path fill="#C9EFFB" opacity="1.000000" stroke="none" 
	d="
M400.338165,474.038727 
	C400.240631,473.819641 400.403259,473.533142 400.793030,473.136963 
	C400.879578,473.342010 400.738953,473.656647 400.338165,474.038727 
z"/>
<path fill="#03ADED" opacity="1.000000" stroke="none" 
	d="
M321.788147,382.900024 
	C316.843384,390.232086 311.423645,397.053467 303.769775,401.910614 
	C286.800415,412.679413 264.664215,412.394348 248.124268,400.959808 
	C231.109528,389.197083 222.865097,368.565277 227.143417,348.454865 
	C231.253098,329.137207 247.087357,313.605225 266.581299,309.769836 
	C298.579285,303.474365 327.351562,327.394714 327.079620,360.076599 
	C327.063019,362.074463 326.947906,364.071564 326.939209,366.532593 
	C326.999786,366.996216 326.810699,367.329498 326.561646,367.775391 
	C326.225739,369.143127 326.138916,370.064972 326.052063,370.986816 
	C325.910370,371.293030 325.768646,371.599274 325.398926,372.374146 
	C325.145844,373.229858 325.120789,373.617004 325.095703,374.004120 
	C325.095734,374.004120 324.899445,374.396149 324.663544,374.818420 
	C324.350830,375.827545 324.274017,376.414368 324.197235,377.001221 
	C324.197235,377.001221 323.977905,377.420563 323.674561,377.819336 
	C323.257233,378.811859 323.143280,379.405670 323.029327,379.999451 
	C323.029327,379.999451 322.820160,380.310333 322.550690,380.690308 
	C322.114197,381.673126 321.947174,382.276031 321.780151,382.878906 
	C321.780151,382.878906 321.804260,382.925690 321.788147,382.900024 
z"/>
<path fill="#C9EFFB" opacity="1.000000" stroke="none" 
	d="
M326.278839,370.716827 
	C326.138916,370.064972 326.225739,369.143127 326.561157,367.966980 
	C326.708313,368.624054 326.606934,369.535461 326.278839,370.716827 
z"/>
<path fill="#C9EFFB" opacity="1.000000" stroke="none" 
	d="
M322.045990,382.690918 
	C321.947174,382.276031 322.114197,381.673126 322.537750,380.877197 
	C322.633484,381.290375 322.472656,381.896637 322.045990,382.690918 
z"/>
<path fill="#C9EFFB" opacity="1.000000" stroke="none" 
	d="
M323.246643,379.790955 
	C323.143280,379.405670 323.257233,378.811859 323.636230,378.052795 
	C323.755493,378.452515 323.609711,379.017456 323.246643,379.790955 
z"/>
<path fill="#C9EFFB" opacity="1.000000" stroke="none" 
	d="
M324.403687,376.782379 
	C324.274017,376.414368 324.350830,375.827545 324.657166,375.037537 
	C324.794525,375.410767 324.702362,375.987152 324.403687,376.782379 
z"/>
<path fill="#C9EFFB" opacity="1.000000" stroke="none" 
	d="
M325.269226,373.772400 
	C325.120789,373.617004 325.145844,373.229858 325.376831,372.627258 
	C325.536102,372.788086 325.489441,373.164398 325.269226,373.772400 
z"/>
</svg>
